<svg xmlns="http://www.w3.org/2000/svg" viewBox="0 0 13.995 14">
    <defs>
        <style>
            .cls-1{fill:#cce7ff}
        </style>
    </defs>
    <g id="icon_more_contact_us_default" transform="translate(-307 -65)">
        <g id="icon" transform="translate(307 65)">
            <path id="Path_327" d="M10.027 13.111l-2.788-.949a.648.648 0 0 0-.593.119l-.771.771a4.728 4.728 0 0 1-1.542-.952 4.344 4.344 0 0 1-1.009-1.54l.776-.771a.472.472 0 0 0 .114-.589l-.89-2.788a.575.575 0 0 0-.83-.356l-2.017.89a.627.627 0 0 0-.356.415 7.854 7.854 0 0 0 2.135 6.821 7.587 7.587 0 0 0 6.821 2.135.627.627 0 0 0 .415-.356l.89-2.017a.613.613 0 0 0-.355-.833z" class="cls-1" data-name="Path 327" transform="translate(-.007 -2.434)"/>
            <path id="Path_328" d="M14.456 0A3.848 3.848 0 0 0 10.6 3.856a4.09 4.09 0 0 0 .475 1.9L10.6 7.711l1.957-.475a3.913 3.913 0 0 0 1.9.475 3.856 3.856 0 0 0 0-7.711zm1.839 3.2l-2.314 2.316-1.364-1.423a.294.294 0 0 1 .415-.415l.949.949 1.839-1.839a.287.287 0 0 1 .415 0 .293.293 0 0 1 .059.412z" class="cls-1" data-name="Path 328" transform="translate(-4.316)"/>
        </g>
    </g>
</svg>
