<svg xmlns="http://www.w3.org/2000/svg" viewBox="0 0 60 59.993">
    <defs>
        <style>
            .cls-1{fill:#1b68b2}.cls-2{fill:#3b93d0}.cls-3{fill:#fff}.cls-4{fill:#dcebf8}.cls-5{fill:#0f3d70}.cls-6{fill:#7ab4e2}.cls-7{opacity:.2}
        </style>
    </defs>
    <g id="Group_5158" data-name="Group 5158" transform="translate(-1.468 -52.44)">
        <circle id="Ellipse_248" cx="29.996" cy="29.996" r="29.996" class="cls-1" data-name="Ellipse 248" transform="translate(1.468 52.44)"/>
        <path id="Path_807" d="M73.115 79.3A29.992 29.992 0 0 1 30.7 121.715z" class="cls-2" data-name="Path 807" transform="translate(-20.443 -18.072)"/>
        <circle id="Ellipse_249" cx="26.997" cy="26.997" r="26.997" class="cls-3" data-name="Ellipse 249" transform="translate(4.468 55.439)"/>
        <path id="Path_808" d="M101.4 60a27 27 0 1 1 0 53.993z" class="cls-4" data-name="Path 808" transform="translate(-69.935 -4.561)"/>
        <g id="Group_2999" data-name="Group 2999" transform="translate(13.467 59.549)">
            <path id="Path_809" d="M81.436 94.517c0 5.849-8.069 20.337-14.968 20.337S51.5 100.367 51.5 94.517c0-11.7 7.349-20.817 14.968-20.817s14.968 9.149 14.968 20.817z" class="cls-5" data-name="Path 809" transform="translate(-48.47 -73.7)"/>
            <path id="Path_810" d="M59.4 184.7c-7.169 0-18 1.2-18 7.259a23.022 23.022 0 0 0 .96 6.479 27.683 27.683 0 0 0 34.076-.03 21.989 21.989 0 0 0 .96-6.479C77.4 185.87 66.537 184.7 59.4 184.7z" class="cls-2" data-name="Path 810" transform="translate(-41.4 -151.404)"/>
            <path id="Path_811" d="M101.4 184.7v19.588c6.419 0 13.5-2.55 17.038-5.279a26.193 26.193 0 0 0 .96-7.079c.002-6.06-10.859-7.23-17.998-7.23z" class="cls-1" data-name="Path 811" transform="translate(-83.402 -151.404)"/>
            <g id="Group_2996" data-name="Group 2996" transform="translate(7.499 3.33)">
                <path id="Path_812" d="M92.259 163.3l-4.02.36-4.02-.36s.6 6.629-1.62 6.629h11.28c-2.22 0-1.62-6.629-1.62-6.629z" class="cls-6" data-name="Path 812" transform="translate(-77.741 -139.753)"/>
                <path id="Path_813" d="M76.9 110.237c6.629 0 10.5-8.009 10.5-14.608S83.5 84.8 76.9 84.8c-6.629 0-10.5 4.2-10.5 10.829s3.87 14.608 10.5 14.608z" class="cls-6" data-name="Path 813" transform="translate(-66.4 -84.8)"/>
                <path id="Path_814" d="M88.239 194.609L82.6 185.4h11.279z" class="cls-6" data-name="Path 814" transform="translate(-77.741 -155.224)"/>
            </g>
            <path id="Path_815" d="M101.4 124.185l5.639-9.209c-1.74 0-1.74-4.049-1.68-5.819 4.169-2.4 6.539-8.4 6.539-13.528C111.9 89 108 84.8 101.4 84.8z" class="cls-2" data-name="Path 815" transform="translate(-83.402 -81.47)"/>
            <path id="Path_816" d="M100.637 94.116s-7.049.84-12.6-2.85S80.6 80.708 80.6 80.708s7.049-.84 12.6 2.85 7.437 10.558 7.437 10.558z" class="cls-5" data-name="Path 816" transform="translate(-68.841 -78.548)"/>
            <g id="Group_2997" data-name="Group 2997" transform="translate(6.577 15.568)">
                <path id="Path_817" d="M65.119 130.339c-.72.12-1.5-1.08-1.74-2.4-.21-1.32.24-2.22.93-2.34z" class="cls-6" data-name="Path 817" transform="translate(-63.327 -125.6)"/>
                <path id="Path_818" d="M133.4 130.339c.72.12 1.5-1.08 1.74-2.4.21-1.32-.24-2.22-.93-2.34z" class="cls-2" data-name="Path 818" transform="translate(-112.381 -125.6)"/>
            </g>
            <path id="Path_819" d="M66.82 81.3a17.6 17.6 0 0 1-2.07 8.819 17.711 17.711 0 0 1-6.479 6.3A16.118 16.118 0 0 1 66.82 81.3z" class="cls-5" data-name="Path 819" transform="translate(-53.202 -79.02)"/>
            <g id="Group_2998" class="cls-7" data-name="Group 2998" transform="translate(14.008 27.717)">
                <path id="Path_820" d="M88.1 167.63a8.534 8.534 0 0 0 7.979 0 8.535 8.535 0 0 1 0-1.53 7.787 7.787 0 0 1-3.99 1.08 7.868 7.868 0 0 1-3.99-1.08 8.5 8.5 0 0 1 .001 1.53z" class="cls-5" data-name="Path 820" transform="translate(-88.1 -166.1)"/>
            </g>
        </g>
    </g>
</svg>
