<svg xmlns="http://www.w3.org/2000/svg" width="221.675" height="70" viewBox="0 0 221.675 70">
  <g id="navy-federal-credit-union-logo-veterans" transform="translate(0 0)">
    <path id="Path_2312" data-name="Path 2312" d="M147.488,2.6h1.2l3.228,7.389H150.55l-.71-1.769h-3.5l-.749,1.769H144.26Zm1.847,4.482-1.264-2.917-1.254,2.917Z" transform="translate(-4.008 -0.072)" fill="#fff" opacity="0.4"/>
    <path id="Path_2313" data-name="Path 2313" d="M153.319,2.65h3.306a2.917,2.917,0,0,1,2.119.729,2.217,2.217,0,0,1,.6,1.556h0a2.207,2.207,0,0,1-1.75,2.226l1.944,2.781h-1.478l-1.8-2.567h-1.7v2.6H153.28V2.65Zm3.179,3.6c.972,0,1.517-.486,1.517-1.225h0c0-.778-.564-1.215-1.526-1.215h-1.944v2.44Z" transform="translate(-4.259 -0.073)" fill="#fff" opacity="0.4"/>
    <path id="Path_2314" data-name="Path 2314" d="M161,2.65h1.371l2.236,3.471,2.226-3.471h1.381V9.99h-1.283V4.731l-2.314,3.461h0L162.322,4.75V9.99h-1.264V2.65Z" transform="translate(-4.473 -0.074)" fill="#fff" opacity="0.4"/>
    <path id="Path_2315" data-name="Path 2315" d="M172.407,7.1,169.49,2.66h1.526l2.051,3.247,2.061-3.257h1.507l-2.917,4.414V9.981h-1.293Z" transform="translate(-4.709 -0.074)" fill="#fff" opacity="0.4"/>
    <path id="Path_2316" data-name="Path 2316" d="M144.26,15h1.381l2.236,3.471L150.113,15h1.381v7.34H150.21V17.032L147.9,20.483h0L145.6,17.042v5.25h-1.264V15Z" transform="translate(-4.008 -0.417)" fill="#fff" opacity="0.4"/>
    <path id="Path_2317" data-name="Path 2317" d="M156.1,14.89h1.2l3.228,7.389H159.15l-.739-1.769h-3.471l-.758,1.769H152.86Zm1.857,4.482-1.264-2.917-1.254,2.917Z" transform="translate(-4.247 -0.414)" fill="#fff" opacity="0.4"/>
    <path id="Path_2318" data-name="Path 2318" d="M161.71,15h3.276a2.917,2.917,0,0,1,2.119.729,2.226,2.226,0,0,1,.6,1.585h0a2.207,2.207,0,0,1-1.75,2.226l1.944,2.781h-1.526l-1.8-2.557h-1.585v2.557H161.71V15Zm3.2,3.607c.972,0,1.517-.486,1.517-1.225h0c0-.778-.564-1.215-1.526-1.215h-1.847v2.46Z" transform="translate(-4.493 -0.417)" fill="#fff" opacity="0.4"/>
    <path id="Path_2319" data-name="Path 2319" d="M169.43,15h1.283v7.34H169.43Z" transform="translate(-4.707 -0.417)" fill="#fff" opacity="0.4"/>
    <path id="Path_2320" data-name="Path 2320" d="M172.71,15h1.2l3.889,5.075V15h1.264v7.34h-1.031l-4.044-5.221V22.34H172.72V15Z" transform="translate(-4.799 -0.417)" fill="#fff" opacity="0.4"/>
    <path id="Path_2321" data-name="Path 2321" d="M181.07,15h5.444v1.157h-4.122V18.1h3.685v1.157H182.4V21.2h4.21v1.089H181.06Z" transform="translate(-5.031 -0.417)" fill="#fff" opacity="0.4"/>
    <path id="Path_2322" data-name="Path 2322" d="M191,18.641h0a3.714,3.714,0,0,1,3.607-3.821h.175a3.831,3.831,0,0,1,2.917,1.147l-.865.972a2.917,2.917,0,0,0-2.061-.914,2.46,2.46,0,0,0-2.431,2.489s0,.068,0,.107h0a2.479,2.479,0,0,0,2.343,2.615h.088a2.917,2.917,0,0,0,2.061-.972l.826.846a3.792,3.792,0,0,1-2.917,1.322,3.694,3.694,0,0,1-3.694-3.694A.3.3,0,0,1,191,18.641Z" transform="translate(-5.307 -0.412)" fill="#fff" opacity="0.4"/>
    <path id="Path_2323" data-name="Path 2323" d="M198.67,18.64h0a3.84,3.84,0,0,1,7.681,0h0a3.84,3.84,0,1,1-7.68,0Zm6.319,0h0a2.508,2.508,0,0,0-2.411-2.615h-.087a2.479,2.479,0,0,0-2.479,2.479s0,.078,0,.117h0a2.508,2.508,0,0,0,2.411,2.615h.1a2.479,2.479,0,0,0,2.469-2.489A.378.378,0,0,0,204.989,18.64Z" transform="translate(-5.52 -0.411)" fill="#fff" opacity="0.4"/>
    <path id="Path_2324" data-name="Path 2324" d="M207.849,15h3.276a2.917,2.917,0,0,1,2.119.729,2.217,2.217,0,0,1,.6,1.585h0a2.207,2.207,0,0,1-1.75,2.226l1.944,2.781h-1.526l-1.8-2.557H209.1v2.557H207.82V15Zm3.179,3.646c.972,0,1.517-.486,1.517-1.225h0c0-.778-.564-1.215-1.526-1.215h-1.876v2.46Z" transform="translate(-5.774 -0.417)" fill="#fff" opacity="0.4"/>
    <path id="Path_2325" data-name="Path 2325" d="M215.54,15h2.917a2.469,2.469,0,0,1,2.79,2.45h0c0,1.643-1.322,2.5-2.917,2.5h-1.458V22.3h-1.283Zm2.79,3.821c.972,0,1.585-.544,1.585-1.3h0c0-.865-.622-1.3-1.585-1.3h-1.507v2.644Z" transform="translate(-5.989 -0.416)" fill="#fff" opacity="0.4"/>
    <path id="Path_2326" data-name="Path 2326" d="M222.13,21.224l.768-.972a3.383,3.383,0,0,0,2.314.972c.8,0,1.293-.369,1.293-.972h0c0-.525-.3-.807-1.653-1.118-1.565-.379-2.44-.846-2.44-2.2h0a2.246,2.246,0,0,1,2.275-2.207h.233a4.122,4.122,0,0,1,2.664.972l-.69.972a3.335,3.335,0,0,0-1.944-.749c-.749,0-1.2.389-1.2.875h0c0,.564.34.817,1.74,1.157s2.353.972,2.353,2.149h0c0,1.371-1.031,2.2-2.625,2.2a4.531,4.531,0,0,1-3.092-1.079Z" transform="translate(-6.172 -0.409)" fill="#fff" opacity="0.4"/>
    <path id="Path_2327" data-name="Path 2327" d="M144.26,27.25h1.2l3.889,5.075V27.25h1.264v7.34h-1.031l-4.044-5.231V34.59H144.27V27.25Z" transform="translate(-4.008 -0.757)" fill="#fff" opacity="0.4"/>
    <path id="Path_2328" data-name="Path 2328" d="M155.249,27.2h1.2l3.228,7.389h-1.361l-.69-1.75h-3.471l-.749,1.769H152.08Zm1.857,4.433-1.264-2.917-1.3,2.917Z" transform="translate(-4.225 -0.756)" fill="#fff" opacity="0.4"/>
    <path id="Path_2329" data-name="Path 2329" d="M158.93,27.25h1.429l2.217,5.639,2.207-5.639h1.4l-3.092,7.389h-1.176Z" transform="translate(-4.416 -0.757)" fill="#fff" opacity="0.4"/>
    <path id="Path_2330" data-name="Path 2330" d="M169.917,31.7,167,27.26h1.526l2.061,3.257,2.061-3.257h1.478l-2.917,4.385v2.917h-1.293Z" transform="translate(-4.64 -0.757)" fill="#fff" opacity="0.4"/>
    <path id="Path_2331" data-name="Path 2331" d="M147.488,39.49h1.2l3.228,7.389H150.55l-.71-1.769h-3.5l-.749,1.769H144.26Zm1.847,4.482-1.264-2.917-1.254,2.917Z" transform="translate(-4.008 -1.097)" fill="#fff" opacity="0.4"/>
    <path id="Path_2332" data-name="Path 2332" d="M153.39,39.54h1.293v7.34H153.39Z" transform="translate(-4.262 -1.099)" fill="#fff" opacity="0.4"/>
    <path id="Path_2333" data-name="Path 2333" d="M156.41,39.54h3.276a2.917,2.917,0,0,1,2.119.729,2.217,2.217,0,0,1,.6,1.585h0a2.207,2.207,0,0,1-1.75,2.226l1.944,2.781h-1.526l-1.808-2.528h-1.575V46.9H156.41V39.54Zm3.169,3.636c.972,0,1.517-.486,1.517-1.225h0c0-.778-.564-1.215-1.526-1.215h-1.828V43.2Z" transform="translate(-4.346 -1.098)" fill="#fff" opacity="0.4"/>
    <path id="Path_2334" data-name="Path 2334" d="M167.23,39.54h5.464v1.176h-4.181v2h3.7v1.157h-3.7v2.985H167.23Z" transform="translate(-4.646 -1.099)" fill="#fff" opacity="0.4"/>
    <path id="Path_2335" data-name="Path 2335" d="M173.66,43.23h0a3.84,3.84,0,1,1,7.68,0h0a3.84,3.84,0,1,1-7.68,0Zm6.319,0h0a2.508,2.508,0,0,0-2.411-2.615h-.1a2.479,2.479,0,0,0-2.508,2.489s0,.068,0,.107h0a2.508,2.508,0,0,0,2.45,2.606h.1a2.479,2.479,0,0,0,2.46-2.5v-.1Z" transform="translate(-4.825 -1.094)" fill="#fff" opacity="0.4"/>
    <path id="Path_2336" data-name="Path 2336" d="M182.829,39.54h3.276a2.917,2.917,0,0,1,2.119.729,2.226,2.226,0,0,1,.6,1.585h0a2.207,2.207,0,0,1-1.75,2.226l1.944,2.781H187.5l-1.808-2.528h-1.614V46.9H182.79Zm3.179,3.636c.972,0,1.517-.486,1.517-1.225h0c0-.778-.564-1.215-1.526-1.215h-1.876V43.2Z" transform="translate(-5.079 -1.098)" fill="#fff" opacity="0.4"/>
    <path id="Path_2337" data-name="Path 2337" d="M190.18,43.231h0a3.714,3.714,0,0,1,3.636-3.8h.156a3.831,3.831,0,0,1,2.917,1.147l-.836.972a2.917,2.917,0,0,0-2.061-.914,2.46,2.46,0,0,0-2.421,2.5s0,.068,0,.1h0a2.479,2.479,0,0,0,2.324,2.586h.078a2.917,2.917,0,0,0,2.061-.972l.836.836a3.792,3.792,0,0,1-2.975,1.312,3.694,3.694,0,0,1-3.675-3.714Z" transform="translate(-5.284 -1.095)" fill="#fff" opacity="0.4"/>
    <path id="Path_2338" data-name="Path 2338" d="M198.37,39.54h5.474V40.7h-4.122v1.944h3.685V43.8h-3.685v1.944h4.21V46.9h-5.493V39.54Z" transform="translate(-5.512 -1.099)" fill="#fff" opacity="0.4"/>
    <path id="Path_2339" data-name="Path 2339" d="M143.93,55.531h0a3.714,3.714,0,0,1,3.636-3.8h.156a3.831,3.831,0,0,1,2.917,1.147l-.826.972a2.917,2.917,0,0,0-2.061-.914,2.46,2.46,0,0,0-2.421,2.5v.1h0a2.479,2.479,0,0,0,2.353,2.606h.068a2.917,2.917,0,0,0,2.11-.972l.826.846a3.8,3.8,0,0,1-2.975,1.293,3.685,3.685,0,0,1-3.733-3.636A.406.406,0,0,1,143.93,55.531Z" transform="translate(-3.999 -1.437)" fill="#fff" opacity="0.4"/>
    <path id="Path_2340" data-name="Path 2340" d="M151.56,55.53h0a3.84,3.84,0,1,1,7.681,0h0a3.84,3.84,0,1,1-7.68,0Zm6.319,0h0a2.508,2.508,0,0,0-2.392-2.625h-.1a2.479,2.479,0,0,0-2.431,2.489V55.5h0a2.508,2.508,0,0,0,2.421,2.606h.087a2.479,2.479,0,0,0,2.46-2.5S157.879,55.559,157.879,55.53Z" transform="translate(-4.211 -1.436)" fill="#fff" opacity="0.4"/>
    <path id="Path_2341" data-name="Path 2341" d="M163.079,51.79h1.2l3.228,7.389h-1.371l-.739-1.769h-3.451l-.749,1.769H159.9Zm1.847,4.482-1.264-2.917-1.254,2.917Z" transform="translate(-4.443 -1.439)" fill="#fff" opacity="0.4"/>
    <path id="Path_2342" data-name="Path 2342" d="M168.28,58.118l.768-.972a3.383,3.383,0,0,0,2.314.972c.8,0,1.293-.369,1.293-.914h0c0-.525-.3-.817-1.653-1.118-1.565-.379-2.44-.846-2.44-2.2h0a2.246,2.246,0,0,1,2.362-2.119h.165a4.122,4.122,0,0,1,2.664.972l-.69.972a3.325,3.325,0,0,0-1.993-.758c-.749,0-1.2.389-1.2.875h0c0,.564.34.826,1.74,1.157s2.353.972,2.353,2.149h0c0,1.381-1.079,2.2-2.625,2.2a4.531,4.531,0,0,1-3.062-1.215Z" transform="translate(-4.676 -1.438)" fill="#fff" opacity="0.4"/>
    <path id="Path_2343" data-name="Path 2343" d="M177.2,53.037H174.88V51.88h5.95v1.2h-2.324v6.174h-1.293V53.027Z" transform="translate(-4.859 -1.441)" fill="#fff" opacity="0.4"/>
    <path id="Path_2344" data-name="Path 2344" d="M185.1,55.531h0a3.733,3.733,0,0,1,3.675-3.8h.117a3.967,3.967,0,0,1,2.819,1.031l-.817.972a2.917,2.917,0,0,0-2.061-.778,2.479,2.479,0,0,0-2.382,2.576h0a2.45,2.45,0,0,0,2.265,2.615h.233a3,3,0,0,0,1.769-.554V56.2h-1.828V55.074h3.092v3.092a4.676,4.676,0,0,1-3.092,1.147,3.646,3.646,0,0,1-3.762-3.529A.676.676,0,0,1,185.1,55.531Z" transform="translate(-5.143 -1.437)" fill="#fff" opacity="0.4"/>
    <path id="Path_2345" data-name="Path 2345" d="M193.65,56.07V51.88h1.313V56c0,1.371.7,2.061,1.857,2.061s1.847-.69,1.847-2.061V51.88h1.3V56a3.161,3.161,0,1,1-6.3.078Z" transform="translate(-5.38 -1.441)" fill="#fff" opacity="0.4"/>
    <path id="Path_2346" data-name="Path 2346" d="M204.147,51.79H205.3l3.228,7.389h-1.361l-.739-1.769h-3.49l-.749,1.769H200.9Zm1.847,4.482-1.264-2.917-1.254,2.917Z" transform="translate(-5.582 -1.439)" fill="#fff" opacity="0.4"/>
    <path id="Path_2347" data-name="Path 2347" d="M210,51.88h3.276a2.917,2.917,0,0,1,2.119.729,2.217,2.217,0,0,1,.6,1.585h0a2.207,2.207,0,0,1-1.75,2.226l1.944,2.781h-1.526l-1.75-2.567H211.3v2.557H210Zm3.179,3.636c.972,0,1.517-.486,1.517-1.225h0c0-.778-.564-1.215-1.526-1.215h-1.876v2.411Z" transform="translate(-5.835 -1.441)" fill="#fff" opacity="0.4"/>
    <path id="Path_2348" data-name="Path 2348" d="M217.67,51.88h2.742a3.656,3.656,0,0,1,3.889,3.412v.2h0a3.675,3.675,0,0,1-3.665,3.685H217.66Zm2.742,6.174a2.4,2.4,0,0,0,2.557-2.479h0a2.411,2.411,0,0,0-2.314-2.508h-1.692v4.987Z" transform="translate(-6.048 -1.441)" fill="#fff" opacity="0.4"/>
    <path id="Path_2349" data-name="Path 2349" d="M10.937,60.193A3.656,3.656,0,0,0,7.214,57c-3.208,0-4.56,3.033-4.56,6.115s1.332,6.106,4.56,6.106c2.333,0,3.617-1.867,3.831-4.2h2.567c-.2,3.889-2.761,6.494-6.387,6.494C2.7,71.519,0,67.7,0,63.11S2.693,54.7,7.2,54.7c3.383,0,6.057,2.061,6.368,5.483Z" transform="translate(0 -1.52)" fill="#fff"/>
    <path id="Path_2350" data-name="Path 2350" d="M15.56,59.641h2.246v2.285h0a3.549,3.549,0,0,1,3.218-2.6,5.552,5.552,0,0,1,.9.068v2.469a8.039,8.039,0,0,0-1.031-.117c-1.633,0-2.917,1.419-2.917,3.986v5.532H15.56Z" transform="translate(-0.432 -1.648)" fill="#fff"/>
    <path id="Path_2351" data-name="Path 2351" d="M24.491,66.115c0,1.818.972,3.442,2.917,3.442a2.528,2.528,0,0,0,2.644-1.944h2.275a4.861,4.861,0,0,1-4.949,3.967c-3.4,0-5.318-2.547-5.318-6.115,0-3.306,2.061-6.174,5.26-6.174,3.432,0,5.532,3.306,5.143,6.806H24.491Zm5.59-1.682a2.787,2.787,0,1,0-5.561-.068v.068Z" transform="translate(-0.613 -1.647)" fill="#fff"/>
    <path id="Path_2352" data-name="Path 2352" d="M44.345,71.15H42.109V69.585h0a3.558,3.558,0,0,1-3.364,1.886c-3.432,0-5.085-2.722-5.085-6.174-.078-4.219,2.275-6.106,4.618-6.106A4.122,4.122,0,0,1,41.9,61.049h0V55.06h2.4V71.15Zm-5.318-1.682c2.139,0,3.092-2.061,3.092-4.122,0-2.567-1.157-4.122-3-4.122-2.256,0-3.092,2.129-3.092,4.229S36.907,69.468,39.027,69.468Z" transform="translate(-0.935 -1.53)" fill="#fff"/>
    <path id="Path_2353" data-name="Path 2353" d="M46.86,55.06h2.4v2.469h-2.4Zm0,4.424h2.4V71.15h-2.4Z" transform="translate(-1.302 -1.53)" fill="#fff"/>
    <path id="Path_2354" data-name="Path 2354" d="M50.34,59.552h1.808V56.12h2.4v3.49h2.168v1.867H54.55V67.67c0,1.031.078,1.594,1.157,1.594a3.811,3.811,0,0,0,1.031-.1v1.944c-.525,0-1.031.136-1.556.136-2.5,0-2.917-1.031-3-2.917V61.526H50.34Z" transform="translate(-1.399 -1.559)" fill="#fff"/>
    <path id="Path_2355" data-name="Path 2355" d="M63.239,55.06h2.625v9.362c0,2.149.126,4.657,3.529,4.657s3.529-2.5,3.529-4.657V55.06h2.625v10.3c0,4.122-2.46,6.174-6.174,6.174S63.2,69.468,63.2,65.356Z" transform="translate(-1.756 -1.53)" fill="#fff"/>
    <path id="Path_2356" data-name="Path 2356" d="M77.93,59.64H80.2v1.711h0a3.889,3.889,0,0,1,3.383-2.061,3.583,3.583,0,0,1,3.889,3.957v7.982h-2.4v-7.36c0-1.818-.71-2.606-2.119-2.606a2.761,2.761,0,0,0-2.644,2.917q0,.107,0,.214v6.864H77.93Z" transform="translate(-2.165 -1.647)" fill="#fff"/>
    <path id="Path_2357" data-name="Path 2357" d="M89.87,55.06h2.4v2.469h-2.4Zm0,4.424h2.4V71.15h-2.4Z" transform="translate(-2.497 -1.53)" fill="#fff"/>
    <path id="Path_2358" data-name="Path 2358" d="M93.73,65.475c0-3.549,1.993-6.115,5.483-6.115s5.474,2.567,5.474,6.115-1.944,6.174-5.464,6.174S93.73,69.024,93.73,65.475Zm8.585,0c0-1.993-.972-4.122-3.092-4.122s-3.092,2.061-3.092,4.122S97.1,69.6,99.223,69.6s3.1-2.129,3.1-4.122Z" transform="translate(-2.604 -1.649)" fill="#fff"/>
    <path id="Path_2359" data-name="Path 2359" d="M106.319,59.64h2.275v1.711h0a3.889,3.889,0,0,1,3.383-2.061,3.583,3.583,0,0,1,3.889,3.957v7.982h-2.4v-7.36c0-1.818-.71-2.606-2.119-2.606A2.761,2.761,0,0,0,108.7,64.18q0,.107,0,.214v6.864h-2.4Z" transform="translate(-2.953 -1.647)" fill="#fff"/>
    <path id="Path_2360" data-name="Path 2360" d="M.37,24.47H13.009v3.675H5.3v4.443h7.2v3.675H5.3v7.194H.37Z" transform="translate(-0.01 -0.68)" fill="#fff"/>
    <path id="Path_2361" data-name="Path 2361" d="M14.71,24.47H28.088v3.656H19.61V32.1h8.021v3.656H19.61V39.88h8.75v3.7H14.749Z" transform="translate(-0.409 -0.68)" fill="#fff"/>
    <path id="Path_2362" data-name="Path 2362" d="M30.23,24.41h7.554c2.129,0,4.949.233,6.806,1.585,2.644,1.944,3.364,5.085,3.364,7.914,0,4.229-1.264,7.36-4.861,8.867a14.408,14.408,0,0,1-5.25.739H30.259V24.41ZM35.3,39.859h2.129c3.3,0,5.4-1.536,5.4-5.979,0-5.833-4.054-5.833-5.571-5.833H35.315V39.859Z" transform="translate(-0.84 -0.678)" fill="#fff"/>
    <path id="Path_2363" data-name="Path 2363" d="M49.77,24.47H63.148v3.656h-8.5V32.1h7.982v3.656H54.651V39.88H63.4v3.7H49.789Z" transform="translate(-1.383 -0.68)" fill="#fff"/>
    <path id="Path_2364" data-name="Path 2364" d="M65.09,24.41h8.235c3.218,0,4.433.214,5.493,1.381a5.085,5.085,0,0,1,1.225,3.7,3.743,3.743,0,0,1-1.633,3.539,6.251,6.251,0,0,1-2.712,1.04v.107c3.471.107,3.665,1.75,4.054,4.686a32.7,32.7,0,0,0,.807,4.706H75.269a31.783,31.783,0,0,1-.593-4.317c-.224-2.3-.3-3.15-2.518-3.15H70.1v7.467H65.09Zm4.968,8.235h1.857a6.4,6.4,0,0,0,2.061-.156A2.217,2.217,0,0,0,75.3,30.321c0-2.353-1.944-2.353-3.364-2.353H70.077Z" transform="translate(-1.808 -0.678)" fill="#fff"/>
    <path id="Path_2365" data-name="Path 2365" d="M88.5,24.41h6.047l7.049,19.1h-5.6l-1.235-3.84H87.6l-1.215,3.84H81.44Zm5.153,11.744-2.3-8.021h-.068l-2.528,8.021Z" transform="translate(-2.263 -0.678)" fill="#fff"/>
    <path id="Path_2366" data-name="Path 2366" d="M102.71,24.41h5.026V39.79h8.021v3.762H102.71Z" transform="translate(-2.854 -0.678)" fill="#fff"/>
    <path id="Path_2367" data-name="Path 2367" d="M.37,2.67H7.176L13.223,16.9V2.67H17.51V21.784H10.85L4.677,6.938V21.784H.37Z" transform="translate(-0.01 -0.074)" fill="#fff"/>
    <path id="Path_2368" data-name="Path 2368" d="M26.439,2.67h6.008l7.049,19.1H33.944l-1.235-3.84H25.554l-1.215,3.84H19.39Zm5.143,11.744-2.314-8H29.2L26.73,14.434Z" transform="translate(-0.539 -0.074)" fill="#fff"/>
    <path id="Path_2369" data-name="Path 2369" d="M36.31,2.67h5.464l4.064,13.864L50.125,2.67h4.929l-6.514,19.1H42.62Z" transform="translate(-1.009 -0.074)" fill="#fff"/>
    <path id="Path_2370" data-name="Path 2370" d="M61.136,2.67l3.889,8.021L69.059,2.67H74.2L67.251,15.027v6.757H62.2v-6.99L55.39,2.68Z" transform="translate(-1.539 -0.074)" fill="#fff"/>
    <rect id="Rectangle_2651" data-name="Rectangle 2651" width="112.534" height="5.026" transform="translate(0.36 45.062)" fill="#fff"/>
    <path id="Path_2371" data-name="Path 2371" d="M102.522,11.142A11.142,11.142,0,0,0,92.382.068a6.932,6.932,0,0,0-1.944,0A11.171,11.171,0,0,0,82.5,4.4h0l-.2.292-.2.292h0a11.122,11.122,0,0,0,8.235,17.267,7.1,7.1,0,0,0,1.944,0,11.142,11.142,0,0,0,10.247-11.112Zm-5.989,8.235H94.978a13.931,13.931,0,0,0,1.089-3.092h2.586a10.15,10.15,0,0,1-2.119,3.082ZM84.148,16.294h2.606a14.019,14.019,0,0,0,1.089,3.092H86.286a10.3,10.3,0,0,1-2.119-3.111Zm-3.169-4.774h1.429a13.5,13.5,0,0,0,.729,4.122H81.95a10.3,10.3,0,0,1-.972-4.151ZM84.3,5.775a9.965,9.965,0,0,1,2.032-2.858h1.556A13.388,13.388,0,0,0,87,5.25h0l-.1.34-.1.34h0v.1H84.177Zm14.33.243h-2.6a13.981,13.981,0,0,0-1.089-3.1h1.585a10.218,10.218,0,0,1,2.09,3.111Zm3.189,4.764h-1.4a13.32,13.32,0,0,0-.729-4.064h1.186a10.344,10.344,0,0,1,.972,4.064Zm-2.139,0h-3.15a22.8,22.8,0,0,0-.4-4.064h2.722a12.639,12.639,0,0,1,.8,4.064Zm-12.133-5a12.474,12.474,0,0,1,1.108-2.868H91.05v3.1H87.482A2.4,2.4,0,0,1,87.55,5.785Zm.69-3.549H87.113a7.642,7.642,0,0,1,1.944-1.1,6.5,6.5,0,0,0-.836,1.089Zm2.8-1.5V2.217H89.1A3.335,3.335,0,0,1,91.041.739Zm.749,1.478V.739a3.286,3.286,0,0,1,1.944,1.478Zm2.392.7a13.134,13.134,0,0,1,1.167,3.092H91.8V2.917ZM91.089,6.728v4.064H86.977a21.826,21.826,0,0,1,.418-4.064Zm0,4.764v4.122h-3.7a21.7,21.7,0,0,1-.428-4.122Zm0,4.764v3.092H88.707a13.183,13.183,0,0,1-1.167-3.092Zm0,3.811v1.478a3.3,3.3,0,0,1-1.944-1.478Zm.7,0h1.944a3.286,3.286,0,0,1-1.944,1.5Zm0-.7V16.285h3.5a13.037,13.037,0,0,1-1.167,3.092Zm0-3.8V11.453h4.122a21.865,21.865,0,0,1-.428,4.1Zm0-4.764V6.728H95.5a21.827,21.827,0,0,1,.4,4.064Zm2.8-8.575a6.854,6.854,0,0,0-.856-1.108,7.515,7.515,0,0,1,1.944,1.1Zm-7.943,4.5a23.149,23.149,0,0,0-.408,4.064H83.146a12.746,12.746,0,0,1,.749-4.064Zm-4.2,4.064H80.978a10.3,10.3,0,0,1,.972-4.064h1.186a13.446,13.446,0,0,0-.729,4.064Zm.7.7h3.092a22.788,22.788,0,0,0,.408,4.122H83.895a12.639,12.639,0,0,1-.768-4.122Zm5.143,8.575a6.474,6.474,0,0,0,.856,1.108,7.515,7.515,0,0,1-2-1.108Zm6.31,0h1.1a7.486,7.486,0,0,1-2,1.108,6.854,6.854,0,0,0,.894-1.108Zm1.643-4.511a22.876,22.876,0,0,0,.4-4.122h3.092a12.639,12.639,0,0,1-.778,4.122Zm4.181-4.112h1.429a10.373,10.373,0,0,1-.972,4.122H99.645a13.388,13.388,0,0,0,.729-4.064Zm.1-5.474H99.382a11.22,11.22,0,0,0-1.876-3.053h.331a10.568,10.568,0,0,1,2.674,3.15ZM85.042,2.858h.34a10.821,10.821,0,0,0-1.575,2.285h0l-.156.321-.156.321h0l-.107.224H82.31a10.967,10.967,0,0,1,.593-.972,10.49,10.49,0,0,1,2.09-2.119ZM82.368,16.236h1.089A11.19,11.19,0,0,0,85.4,19.328h-.34a10.51,10.51,0,0,1-2.722-3.053Zm15.507,3.111h-.369a11.258,11.258,0,0,0,1.944-3.092h1.1a10.51,10.51,0,0,1-2.761,3.111Z" transform="translate(-2.229)" fill="#fff"/>
    <path id="Path_2372" data-name="Path 2372" d="M120.144,45.88A2.693,2.693,0,1,1,117.47,48.6h0a2.654,2.654,0,0,1,2.625-2.683Zm0,.418a2.285,2.285,0,1,0,2.158,2.4v-.117a2.217,2.217,0,0,0-2.139-2.285Zm-.544,3.831h-.486V47.134a5.24,5.24,0,0,1,.846-.068,1.585,1.585,0,0,1,.972.224.719.719,0,0,1,.282.622.749.749,0,0,1-.544.719h0c.272,0,.447.292.506.729a2.46,2.46,0,0,0,.194.739h-.506a2.2,2.2,0,0,1-.2-.758.554.554,0,0,0-.583-.535h-.437v1.322Zm0-1.653h.331c.389,0,.729-.146.729-.515s-.194-.525-.729-.525h-.35Z" transform="translate(-3.264 -1.275)" fill="#fff"/>
    <rect id="Rectangle_2652" data-name="Rectangle 2652" width="0.564" height="67.17" transform="translate(128.206 2.528)" fill="#fff"/>
    <path id="Path_2373" data-name="Path 2373" d="M190.42,64.06h1.206l3.889,5.075V64.06h1.3V71.4h-1.069L191.7,66.17V71.4h-1.264V64.06Z" transform="translate(-5.291 -1.78)" fill="#fff" opacity="0.4"/>
    <path id="Path_2374" data-name="Path 2374" d="M184.767,64h1.2l3.228,7.389H187.82l-.739-1.769h-3.471l-.749,1.769H181.53Zm1.847,4.482-1.264-2.917L184.1,68.482Z" transform="translate(-5.044 -1.778)" fill="#fff" opacity="0.4"/>
    <path id="Path_2375" data-name="Path 2375" d="M198,70.3l.768-.972a3.383,3.383,0,0,0,2.314.972c.8,0,1.293-.369,1.293-.914h0c0-.525-.3-.817-1.653-1.118-1.565-.379-2.44-.846-2.44-2.2h0a2.246,2.246,0,0,1,2.343-2.149h.165a4.122,4.122,0,0,1,2.664.972l-.69.972a3.325,3.325,0,0,0-1.993-.758c-.749,0-1.2.389-1.2.875h0c0,.564.34.826,1.74,1.157s2.353.972,2.353,2.149h0c0,1.381-1.079,2.2-2.625,2.2A4.531,4.531,0,0,1,198,70.3Z" transform="translate(-5.501 -1.776)" fill="#fff" opacity="0.4"/>
    <path id="Path_2376" data-name="Path 2376" d="M174.32,64.06H177.6a2.917,2.917,0,0,1,2.119.729,2.216,2.216,0,0,1,.6,1.585h0a2.207,2.207,0,0,1-1.75,2.226l1.944,2.781h-1.526l-1.769-2.518H175.6v2.567H174.32V64.06Zm3.179,3.607c.972,0,1.517-.486,1.517-1.225h0c0-.778-.564-1.215-1.526-1.215h-1.876v2.44Z" transform="translate(-4.843 -1.78)" fill="#fff" opacity="0.4"/>
    <path id="Union_23" data-name="Union 23" d="M-1496.986-6.66v-6.057H-1500V-14h7.34v1.283h-3.043V-6.66Z" transform="translate(1654.485 76.281)" fill="#fff" opacity="0.4"/>
    <path id="Path_2379" data-name="Path 2379" d="M143.93,64h1.429l2.217,5.639L149.783,64h1.4l-3.092,7.389h-1.176Z" transform="translate(-3.999 -1.778)" fill="#fff" opacity="0.4"/>
    <path id="Path_2380" data-name="Path 2380" d="M152.29,64.06h5.444v1.157h-4.122v1.944H157.3v1.167h-3.685v1.944h4.229v1.157h-5.493V64.06Z" transform="translate(-4.231 -1.78)" fill="#fff" opacity="0.4"/>
    <path id="Path_2381" data-name="Path 2381" d="M167.46,64.06H172.9v1.157h-4.122v1.944h3.675v1.167h-3.685v1.944h4.21v1.157h-5.493V64.06Z" transform="translate(-4.653 -1.78)" fill="#fff" opacity="0.4"/>
  </g>
</svg>
